<svg width="24.000000" height="24.000000" viewBox="0 0 24 24" fill="none" xmlns="http://www.w3.org/2000/svg" xmlns:xlink="http://www.w3.org/1999/xlink">
	<desc>
			Created with Pixso.
	</desc>
	<defs>
		<clipPath id="clip2_1212">
			<rect id="in" width="24.000000" height="24.000000" fill="white" fill-opacity="0"/>
		</clipPath>
	</defs>
	<rect id="in" width="24.000000" height="24.000000" fill="#FFFFFF" fill-opacity="0"/>
	<g clip-path="url(#clip2_1212)">
		<path id="Vector" d="M21.1226 0L2.87738 0C1.3079 0 0 1.24249 0 2.81201L0 21.188C0 22.7575 1.3079 24 2.87738 24L21.1226 24C22.6921 24 24 22.7575 24 21.188L24 2.81201C24 1.24249 22.6921 0 21.1226 0ZM17.2643 3.72754C17.2643 3.33514 17.5913 3.00818 17.9837 3.00818L20.2725 3.00818C20.6649 3.00818 20.9918 3.33514 20.9918 3.72754L20.9918 5.95093C20.9918 6.34332 20.6649 6.67029 20.2725 6.67029L18.049 6.67029C17.6567 6.67029 17.3297 6.34332 17.3297 5.95093L17.2643 3.72754ZM12.0327 7.38965C14.5831 7.38965 16.6757 9.41687 16.6757 11.9673C16.6757 14.5177 14.5831 16.545 12.0327 16.545C9.48229 16.545 7.38965 14.5177 7.38965 11.9673C7.38965 9.4823 9.48229 7.38965 12.0327 7.38965ZM21.7112 20.9918C21.7112 21.3842 21.3842 21.7112 20.9918 21.7112L3.00817 21.7112C2.6158 21.7112 2.28883 21.3842 2.28883 20.9918L2.28883 9.7439L5.23161 9.7439C4.83924 10.3324 4.70845 11.3787 4.70845 12.0327C4.70845 16.0218 7.9782 19.2916 12.0327 19.2916C16.0872 19.2916 19.3569 16.0218 19.3569 12.0327C19.3569 11.3787 19.2916 10.3324 18.7684 9.7439L21.7766 9.7439L21.7112 20.9918Z" fill="#B3B3B3" fill-opacity="1.000000" fill-rule="nonzero"/>
	</g>
</svg>
