<svg width="76.000000" height="95.000000" viewBox="0 0 76 95" fill="none" xmlns="http://www.w3.org/2000/svg" xmlns:xlink="http://www.w3.org/1999/xlink">
	<desc>
			Created with Pixso.
	</desc>
	<defs>
		<clipPath id="clip2_1160">
			<rect id="marker" width="76.000000" height="95.000000" fill="white" fill-opacity="0"/>
		</clipPath>
	</defs>
	<rect id="marker" width="76.000000" height="95.000000" fill="#FFFFFF" fill-opacity="0"/>
	<g clip-path="url(#clip2_1160)">
		<path id="Vector" d="M38 0C24.78 0 0 10 0 38.33C0 66.66 38 95 38 95C38 95 76 66.66 76 38.33C76 10 51.21 0 38 0Z" fill="#FEDB3F" fill-opacity="1.000000" fill-rule="nonzero"/>
		<path id="Vector" d="M22.76 37.43C21.75 37.43 20.87 37.25 20.1 36.9C19.33 36.55 18.74 36.06 18.32 35.43C17.91 34.8 17.7 34.06 17.7 33.23C17.7 32.52 17.84 31.88 18.13 31.31C18.43 30.73 18.83 30.28 19.33 29.94C19.84 29.6 20.4 29.44 21.01 29.44C21.57 29.44 22.04 29.58 22.43 29.87C22.81 30.14 23.05 30.52 23.15 31.02C22.31 31.02 21.65 31.24 21.15 31.69C20.66 32.12 20.41 32.72 20.41 33.47C20.41 34.16 20.62 34.71 21.03 35.12C21.45 35.54 22 35.75 22.69 35.75C23.54 35.75 24.23 35.47 24.78 34.91C25.34 34.33 25.62 33.61 25.62 32.75C25.62 32 25.41 31.28 24.99 30.61C24.58 29.94 23.95 29.12 23.12 28.16C22.26 27.17 21.6 26.32 21.15 25.62C20.72 24.9 20.51 24.12 20.51 23.27C20.51 22.44 20.74 21.69 21.2 21.04C21.67 20.36 22.31 19.84 23.12 19.45C23.94 19.07 24.86 18.87 25.88 18.87C27.18 18.87 28.21 19.18 28.98 19.79C29.76 20.4 30.15 21.21 30.15 22.24C30.15 22.91 29.99 23.45 29.65 23.87C29.31 24.28 28.87 24.49 28.33 24.49C27.72 24.49 27.23 24.24 26.87 23.75C27.17 23.52 27.41 23.23 27.59 22.86C27.76 22.49 27.85 22.11 27.85 21.71C27.85 21.2 27.7 20.79 27.39 20.48C27.09 20.18 26.67 20.03 26.15 20.03C25.51 20.03 24.98 20.26 24.56 20.72C24.16 21.17 23.96 21.75 23.96 22.45C23.96 23.09 24.15 23.69 24.51 24.25C24.88 24.8 25.46 25.5 26.24 26.36C26.88 27.05 27.39 27.64 27.78 28.14C28.18 28.64 28.51 29.21 28.79 29.87C29.07 30.51 29.22 31.2 29.22 31.96C29.22 32.98 28.93 33.91 28.35 34.74C27.79 35.57 27.02 36.23 26.03 36.71C25.05 37.19 23.96 37.43 22.76 37.43ZM32.95 37.14C32.18 37.14 31.55 36.9 31.07 36.42C30.61 35.94 30.38 35.22 30.38 34.26C30.38 33.86 30.44 33.34 30.57 32.7L32.2 25L35.66 25L33.93 33.16C33.88 33.4 33.86 33.62 33.86 33.83C33.86 34.48 34.1 34.81 34.58 34.81C35.03 34.81 35.41 34.63 35.73 34.26C36.05 33.88 36.31 33.36 36.5 32.7L38.13 25L41.59 25L39.86 33.16C39.79 33.4 39.76 33.65 39.76 33.92C39.76 34.24 39.83 34.48 39.98 34.62C40.14 34.75 40.39 34.81 40.75 34.81C41.19 34.81 41.58 34.62 41.9 34.24C42.23 33.85 42.5 33.34 42.69 32.7L43.7 32.7C43.11 34.43 42.37 35.6 41.49 36.23C40.63 36.84 39.75 37.14 38.87 37.14C38.19 37.14 37.63 36.95 37.22 36.56C36.82 36.18 36.58 35.61 36.5 34.86C35.95 35.74 35.38 36.34 34.77 36.66C34.18 36.98 33.57 37.14 32.95 37.14ZM44.32 25L47.77 25L47.46 26.48C48.01 26 48.49 25.64 48.93 25.38C49.37 25.12 49.85 25 50.37 25C50.88 25 51.28 25.17 51.57 25.52C51.87 25.88 52.02 26.3 52.02 26.8C52.02 27.26 51.87 27.67 51.57 28.02C51.26 28.37 50.84 28.55 50.29 28.55C49.94 28.55 49.7 28.47 49.57 28.31C49.46 28.13 49.37 27.88 49.31 27.56C49.26 27.36 49.21 27.2 49.17 27.11C49.12 27.01 49.03 26.96 48.9 26.96C48.57 26.96 48.28 27.04 48.04 27.18C47.81 27.31 47.52 27.54 47.15 27.88L45.23 37L41.77 37L44.32 25ZM49.55 43C48.8 43 48.14 42.75 47.58 42.25C47.01 41.77 46.72 41.16 46.72 40.4C46.72 39.72 46.89 39.15 47.25 38.7C47.6 38.25 48.05 37.89 48.61 37.62C49.17 37.36 49.92 37.09 50.85 36.8L53.75 23.1C54.07 21.56 54.63 20.5 55.43 19.91C56.25 19.32 57.14 19.02 58.12 19.02C58.87 19.02 59.53 19.27 60.09 19.76C60.66 20.24 60.95 20.86 60.95 21.61C60.95 21.98 60.93 22.31 60.88 22.6L59.75 22.6C59.78 22.24 59.8 22.03 59.8 21.95C59.8 21.69 59.71 21.49 59.53 21.35C59.36 21.2 59.14 21.13 58.89 21.13C58.55 21.13 58.22 21.28 57.9 21.59C57.58 21.88 57.35 22.38 57.21 23.1L56.8 25L58.55 25L58.38 25.96L56.61 25.96L53.85 38.91C53.53 40.47 52.97 41.53 52.19 42.11C51.41 42.7 50.53 43 49.55 43ZM49 40.86C49.64 40.86 50.09 40.24 50.37 38.99L50.68 37.59C49.83 37.88 49.18 38.21 48.73 38.58C48.27 38.96 48.04 39.46 48.04 40.07C48.04 40.26 48.13 40.43 48.33 40.59C48.52 40.77 48.74 40.86 49 40.86ZM13.55 58.14C12.46 58.14 11.63 57.88 11.05 57.35C10.47 56.8 10.19 56.04 10.19 55.07C10.19 54.59 10.24 54.13 10.35 53.7L12.92 41.68L16.47 41.2L15.32 46.6C15.77 46.32 16.14 46.15 16.43 46.07C16.71 45.97 17 45.92 17.29 45.92C19.18 45.92 20.12 47.29 20.12 50.03C20.12 51.13 19.91 52.32 19.47 53.58C19.06 54.83 18.35 55.9 17.36 56.8C16.39 57.69 15.11 58.14 13.55 58.14ZM14.89 55.81C15.39 55.81 15.85 55.51 16.28 54.9C16.71 54.28 17.06 53.51 17.31 52.6C17.57 51.67 17.7 50.78 17.7 49.93C17.7 49.29 17.59 48.75 17.36 48.3C17.14 47.85 16.83 47.63 16.43 47.63C16.19 47.63 15.91 47.67 15.61 47.75C15.32 47.81 15.12 47.92 15.01 48.06L13.69 54.16C13.64 54.35 13.62 54.53 13.62 54.71C13.62 55.44 14.04 55.81 14.89 55.81ZM24.52 58.09C23.34 58.09 22.4 57.79 21.71 57.18C21.03 56.57 20.68 55.61 20.68 54.3C20.68 53.21 20.91 52 21.35 50.68C21.8 49.35 22.52 48.2 23.51 47.24C24.51 46.27 25.75 45.78 27.26 45.78C29.31 45.78 30.33 47.06 30.33 49.62L30.33 49.64C30.38 49.66 30.47 49.67 30.59 49.67C31.12 49.67 31.73 49.53 32.42 49.26C33.11 48.97 33.73 48.63 34.29 48.23L34.51 48.88C34.04 49.37 33.43 49.8 32.68 50.15C31.95 50.48 31.14 50.72 30.26 50.87C30.13 52.32 29.8 53.6 29.27 54.68C28.75 55.77 28.07 56.61 27.23 57.2C26.4 57.8 25.5 58.09 24.52 58.09ZM25.48 55.93C25.87 55.93 26.25 55.72 26.63 55.28C27.02 54.84 27.35 54.24 27.64 53.48C27.93 52.72 28.14 51.87 28.27 50.94C27.83 50.84 27.62 50.51 27.62 49.93C27.62 49.28 27.87 48.84 28.36 48.64C28.33 48.11 28.25 47.75 28.12 47.56C27.99 47.35 27.77 47.24 27.45 47.24C26.92 47.24 26.41 47.63 25.91 48.4C25.42 49.16 25.02 50.08 24.71 51.16C24.41 52.23 24.26 53.17 24.26 53.99C24.26 54.76 24.35 55.28 24.52 55.55C24.7 55.8 25.02 55.93 25.48 55.93ZM34.45 58.14C33.53 58.14 32.77 57.83 32.17 57.2C31.56 56.58 31.25 55.6 31.25 54.28C31.25 53.09 31.49 51.85 31.95 50.56C32.43 49.24 33.13 48.14 34.06 47.24C35.01 46.33 36.13 45.88 37.42 45.88C38.08 45.88 38.57 45.99 38.89 46.21C39.21 46.44 39.37 46.73 39.37 47.1L39.37 47.27L39.63 46L43.09 46L41.36 54.16C41.29 54.4 41.26 54.65 41.26 54.92C41.26 55.61 41.59 55.96 42.25 55.96C42.69 55.96 43.08 55.75 43.4 55.33C43.73 54.92 44 54.37 44.19 53.7L45.2 53.7C44.61 55.43 43.87 56.6 42.99 57.23C42.13 57.84 41.25 58.14 40.37 58.14C39.7 58.14 39.16 57.96 38.74 57.59C38.34 57.2 38.1 56.65 38.02 55.93C37.56 56.59 37.04 57.12 36.46 57.54C35.9 57.94 35.23 58.14 34.45 58.14ZM36.01 55.81C36.41 55.81 36.8 55.63 37.18 55.26C37.58 54.88 37.85 54.36 38 53.7L39.15 48.28C39.15 48.07 39.07 47.87 38.91 47.68C38.75 47.47 38.5 47.36 38.17 47.36C37.53 47.36 36.95 47.74 36.44 48.49C35.93 49.23 35.53 50.12 35.24 51.18C34.95 52.22 34.81 53.14 34.81 53.94C34.81 54.74 34.92 55.25 35.14 55.48C35.38 55.7 35.67 55.81 36.01 55.81ZM45.83 46L49.29 46L48.97 47.48C49.52 47 50.01 46.64 50.44 46.38C50.89 46.12 51.37 46 51.88 46C52.39 46 52.79 46.17 53.08 46.52C53.38 46.88 53.53 47.3 53.53 47.8C53.53 48.26 53.38 48.67 53.08 49.02C52.77 49.37 52.35 49.55 51.81 49.55C51.45 49.55 51.21 49.47 51.09 49.31C50.97 49.13 50.89 48.88 50.82 48.56C50.77 48.36 50.73 48.2 50.68 48.11C50.63 48.01 50.54 47.96 50.41 47.96C50.08 47.96 49.79 48.04 49.55 48.18C49.33 48.31 49.03 48.54 48.66 48.88L46.74 58L43.29 58L45.83 46ZM56.1 58.14C55.19 58.14 54.43 57.83 53.82 57.2C53.21 56.58 52.91 55.6 52.91 54.28C52.91 53.09 53.14 51.85 53.61 50.56C54.09 49.24 54.79 48.14 55.72 47.24C56.66 46.33 57.78 45.88 59.08 45.88C59.73 45.88 60.22 45.99 60.54 46.21C60.86 46.44 61.02 46.73 61.02 47.1L61.02 47.2L62.2 41.68L65.75 41.2L62.99 54.16C62.93 54.4 62.89 54.63 62.89 54.85C62.89 55.49 63.22 55.81 63.88 55.81C64.17 55.81 64.42 55.76 64.65 55.67C64.58 56.47 64.29 57.08 63.78 57.52C63.29 57.93 62.69 58.14 62.01 58.14C61.37 58.14 60.82 57.98 60.37 57.66C59.94 57.32 59.65 56.82 59.51 56.15C58.55 57.48 57.41 58.14 56.1 58.14ZM57.66 55.81C58.01 55.81 58.37 55.66 58.72 55.36C59.09 55.05 59.36 54.63 59.53 54.08L59.63 53.7L60.81 48.2C60.66 47.64 60.33 47.36 59.82 47.36C59.18 47.36 58.61 47.74 58.09 48.49C57.58 49.23 57.18 50.12 56.89 51.18C56.61 52.22 56.46 53.14 56.46 53.94C56.46 54.74 56.57 55.25 56.8 55.48C57.04 55.7 57.33 55.81 57.66 55.81Z" fill="#292929" fill-opacity="1.000000" fill-rule="nonzero"/>
	</g>
</svg>
