<svg width="37.999847" height="37.999878" viewBox="0 0 37.9998 37.9999" fill="none" xmlns="http://www.w3.org/2000/svg" xmlns:xlink="http://www.w3.org/1999/xlink">
	<desc>
			Created with Pixso.
	</desc>
	<defs/>
	<path id="Vector" d="M18.2127 0.32605L11.5434 6.99536C11.1087 7.43005 11.1087 8.13489 11.5434 8.5697L14.6925 11.7188C14.956 11.9823 15.3186 12.0863 15.6601 12.0303L15.6601 15.6602L12.0302 15.6602C12.0875 15.3123 11.9764 14.9501 11.7189 14.6926L8.56978 11.5435C8.13538 11.109 7.43007 11.1086 6.99538 11.5435L0.32608 18.2128C-0.108688 18.6475 -0.108688 19.3523 0.32608 19.7871L6.99538 26.4564C7.42978 26.8909 8.13509 26.8912 8.56978 26.4564L11.7189 23.3073C11.9766 23.0496 12.0874 22.6873 12.0302 22.3397L15.66 22.3397L15.66 25.9696C15.3186 25.9135 14.9559 26.0176 14.6925 26.281L11.5434 29.4301C11.1086 29.8647 11.1086 30.5697 11.5434 31.0045L18.2126 37.6738C18.6474 38.1085 19.3523 38.1085 19.787 37.6738L26.4563 31.0045C26.8907 30.5699 26.8911 29.8647 26.4563 29.4301L23.3073 26.281C23.0439 26.0176 22.6811 25.9136 22.3397 25.9696L22.3397 22.3398L25.9696 22.3398C25.9123 22.6876 26.0234 23.0498 26.281 23.3074L29.4301 26.4565C29.8645 26.891 30.5698 26.8912 31.0045 26.4565L37.6738 19.7872C38.1086 19.3525 38.1086 18.6476 37.6738 18.2128L31.0045 11.5435C30.5701 11.109 29.8648 11.1088 29.4301 11.5435L26.281 14.6926C26.0232 14.9503 25.9124 15.3126 25.9696 15.6602L22.3397 15.6602L22.3397 12.0304C22.6811 12.0863 23.0439 11.9823 23.3073 11.719L26.4563 8.56982C26.8909 8.13538 26.8911 7.43018 26.4563 6.99548L19.787 0.326172C19.3524 -0.108643 18.6474 -0.108643 18.2127 0.32605ZM22.5201 9.3573L22.0137 8.85083C21.3152 8.15222 20.1132 8.64685 20.1132 9.63806L20.1132 16.7734C20.1132 17.3882 20.6116 17.8867 21.2265 17.8867L28.3618 17.8867C29.3502 17.8867 29.8497 16.6869 29.149 15.9862L28.6426 15.4799L30.2173 13.905L35.3122 19L30.2174 24.095L28.6427 22.5201L29.1491 22.0138C29.8479 21.3148 29.3527 20.1133 28.3618 20.1133L21.2265 20.1133C20.6116 20.1133 20.1132 20.6117 20.1132 21.2266L20.1132 28.3619C20.1132 29.3536 21.3157 29.8473 22.0136 29.149L22.52 28.6427L24.0947 30.2174L18.9999 35.3123L13.9051 30.2173L15.4797 28.6426L15.9862 29.149C16.6848 29.8479 17.8866 29.3528 17.8866 28.3618L17.8866 21.2266C17.8866 20.6117 17.3882 20.1133 16.7733 20.1133L9.63794 20.1133C8.64957 20.1133 8.15007 21.3131 8.85077 22.0137L9.35716 22.5201L7.78247 24.0948L2.68758 19L7.78239 13.905L9.35709 15.4797L8.85069 15.9862C8.15186 16.6851 8.64703 17.8867 9.63794 17.8867L16.7733 17.8867C17.3882 17.8867 17.8866 17.3882 17.8866 16.7734L17.8866 9.63806C17.8866 8.65002 16.6869 8.15002 15.9862 8.85083L15.4797 9.3573L13.9051 7.78259L18.9999 2.68762L24.0947 7.78259L22.5201 9.3573Z" fill="#FFFFFF" fill-opacity="1.000000" fill-rule="nonzero"/>
</svg>
