<svg width="24.000000" height="24.000000" viewBox="0 0 24 24" fill="none" xmlns="http://www.w3.org/2000/svg" xmlns:xlink="http://www.w3.org/1999/xlink">
	<desc>
			Created with Pixso.
	</desc>
	<defs>
		<clipPath id="clip2_1214">
			<rect id="tv" width="24.000000" height="24.000000" fill="white" fill-opacity="0"/>
		</clipPath>
	</defs>
	<rect id="tv" width="24.000000" height="24.000000" fill="#FFFFFF" fill-opacity="0"/>
	<g clip-path="url(#clip2_1214)">
		<path id="Vector" d="M23.346 2.41962C22.3651 3.00818 21.3188 3.40057 20.2071 3.66211C19.2916 2.68121 18.049 2.09265 16.6104 2.09265C13.8638 2.09265 11.7057 4.38147 11.7057 7.12805C11.7057 7.52045 11.7711 7.91284 11.8365 8.30518C7.71662 8.04358 4.11989 6.01636 1.70027 2.94281C1.3079 3.66211 1.04632 4.57764 1.04632 5.49323C1.04632 7.25885 1.89646 8.76294 3.26975 9.67847C2.48501 9.67847 1.70027 9.41693 1.04632 9.02454L1.04632 9.15533C1.04632 11.575 2.74659 13.6676 4.97003 14.1254C4.57766 14.2562 4.11989 14.3215 3.66212 14.3215C3.33515 14.3215 3.00817 14.3215 2.74659 14.2562C3.40055 16.2834 5.16621 17.7221 7.32425 17.7875C5.62398 19.1608 3.53133 19.9455 1.17711 19.9455C0.78474 19.9455 0.39237 19.9455 0 19.8801C2.15804 21.3188 4.77384 22.1689 7.52044 22.1689C16.6104 22.1689 21.515 14.4523 21.515 7.78204C21.515 7.58582 21.515 7.32428 21.515 7.12805C22.4959 6.40875 23.346 5.55859 24 4.51227C23.1499 4.90466 22.1689 5.1662 21.188 5.297C22.1689 4.57764 22.9537 3.59674 23.346 2.41962Z" fill="#B3B3B3" fill-opacity="1.000000" fill-rule="nonzero"/>
	</g>
</svg>
