<svg width="24.000000" height="24.000000" viewBox="0 0 24 24" fill="none" xmlns="http://www.w3.org/2000/svg" xmlns:xlink="http://www.w3.org/1999/xlink">
	<desc>
			Created with Pixso.
	</desc>
	<defs>
		<clipPath id="clip2_1215">
			<rect id="vk" width="24.000000" height="24.000000" fill="white" fill-opacity="0"/>
		</clipPath>
	</defs>
	<rect id="vk" width="24.000000" height="24.000000" fill="#FFFFFF" fill-opacity="0"/>
	<g clip-path="url(#clip2_1215)">
		<path id="Vector" d="M23.8692 17.5259C23.8692 17.4604 23.8038 17.3951 23.8038 17.3951C23.4114 16.6757 22.5613 15.6948 21.3842 14.6485C20.861 14.1253 20.5341 13.7983 20.4033 13.6022C20.1417 13.2752 20.0763 12.9482 20.2071 12.6212C20.3379 12.3597 20.6648 11.8365 21.3188 10.9864C21.6458 10.5286 21.9074 10.2016 22.1035 9.94006C23.5422 8.04358 24.1962 6.80109 24 6.27789L23.9346 6.14709C23.8692 5.95093 23.7384 5.88556 23.5422 5.82013C23.3461 5.75476 23.0845 5.75476 22.7575 5.82013L19.1608 5.82013C19.0954 5.82013 19.03 5.82013 18.8992 5.82013C18.7684 5.82013 18.7684 5.88556 18.7684 5.88556L18.703 5.88556L18.6376 5.95093C18.5722 5.95093 18.5722 6.01636 18.5068 6.08173C18.4414 6.14709 18.4414 6.21252 18.376 6.27789C17.9837 7.25885 17.5259 8.23975 17.0681 9.0899C16.7411 9.61304 16.4796 10.0708 16.218 10.4632C15.9564 10.8556 15.7602 11.1171 15.564 11.3134C15.3678 11.5095 15.2371 11.6403 15.1063 11.7711C14.9755 11.9019 14.8447 11.9019 14.7793 11.9019C14.7139 11.9019 14.6485 11.8365 14.5831 11.8365C14.4523 11.7711 14.3869 11.6403 14.3215 11.5095C14.2561 11.3787 14.1907 11.2479 14.1907 11.0518C14.1907 10.8556 14.1253 10.6594 14.1253 10.5286C14.1253 10.3978 14.1253 10.2016 14.1253 9.94006C14.1253 9.67847 14.1253 9.4823 14.1253 9.41687C14.1253 9.0899 14.1253 8.76294 14.1253 8.37054C14.1253 7.97821 14.1253 7.71661 14.1253 7.52045C14.1253 7.32422 14.1253 7.06268 14.1253 6.80109C14.1253 6.53949 14.1253 6.34332 14.0599 6.21252C14.0599 6.08173 13.9946 5.95093 13.9292 5.82013C13.8638 5.68933 13.7984 5.55859 13.6676 5.49316C13.5368 5.4278 13.406 5.36237 13.2752 5.297C12.8174 5.1662 12.2943 5.1662 11.5749 5.1662C10.0055 5.1662 9.02452 5.23157 8.56676 5.49316C8.37057 5.55859 8.23978 5.68933 8.10899 5.88556C7.9782 6.08173 7.91281 6.14709 8.0436 6.21252C8.56676 6.27789 8.89373 6.47412 9.08992 6.73566L9.15531 6.86646C9.22071 6.99725 9.2861 7.19342 9.3515 7.45502C9.41689 7.71661 9.41689 8.04358 9.48229 8.37054C9.54768 8.95911 9.54768 9.4823 9.48229 9.94006C9.41689 10.3978 9.41689 10.7248 9.3515 10.921C9.2861 11.1826 9.2861 11.3787 9.15531 11.5095C9.08992 11.6403 9.02452 11.7711 9.02452 11.7711C9.02452 11.8365 8.95913 11.8365 8.95913 11.8365C8.82834 11.9019 8.76294 11.9019 8.63215 11.9019C8.50136 11.9019 8.37057 11.8365 8.23978 11.7057C8.0436 11.5749 7.91281 11.4442 7.71662 11.2479C7.52044 11.0518 7.32425 10.7902 7.12807 10.3978C6.93188 10.0054 6.6703 9.61304 6.40872 9.0899L6.21253 8.69751C6.08174 8.43597 5.88556 8.10895 5.68937 7.65118C5.49319 7.19342 5.297 6.80109 5.10082 6.34332C5.03542 6.21252 4.90463 6.08173 4.77384 5.95093L4.70845 5.95093C4.64305 5.88556 4.57766 5.88556 4.51226 5.82013C4.44687 5.82013 4.31608 5.75476 4.25068 5.75476L0.850136 5.75476C0.457766 5.75476 0.196186 5.88556 0.0653954 6.01636L0.0653954 6.08173C0 6.14709 0 6.21252 0 6.27789C0 6.34332 0 6.47412 0.0653954 6.60492C0.588556 7.78198 1.11172 8.89374 1.70027 10.0054C2.28883 11.1171 2.81199 11.9673 3.20436 12.6212C3.66213 13.2752 4.0545 13.9291 4.51226 14.5177C4.97003 15.1063 5.23161 15.4986 5.42779 15.6294C5.55858 15.8256 5.68937 15.891 5.75477 16.0218L6.08174 16.3488C6.27793 16.5449 6.60491 16.8065 6.93188 17.0681C7.32425 17.3297 7.71662 17.5912 8.23978 17.9182C8.69755 18.1798 9.2861 18.4414 9.87466 18.5722C10.5286 18.7684 11.1172 18.8338 11.7057 18.7684L13.1444 18.7684C13.406 18.7684 13.6676 18.6376 13.7984 18.5068L13.8638 18.4414C13.9292 18.376 13.9292 18.3106 13.9292 18.1798C13.9292 18.049 13.9946 17.9836 13.9946 17.8528C13.9946 17.5259 13.9946 17.1989 14.0599 16.8719C14.1253 16.6104 14.1907 16.3488 14.2561 16.218C14.3215 16.0872 14.4523 15.9564 14.5177 15.8256C14.6485 15.6948 14.7139 15.6948 14.7139 15.6294C14.7793 15.6294 14.7793 15.564 14.8447 15.564C15.0409 15.4986 15.3025 15.564 15.564 15.7602C15.8256 15.9564 16.0872 16.218 16.3488 16.4796C16.6104 16.7411 16.8719 17.0681 17.1989 17.4604C17.5259 17.7875 17.8529 18.1144 18.049 18.2452L18.3106 18.376C18.5068 18.5068 18.703 18.5722 18.9646 18.6376C19.2262 18.703 19.4877 18.7684 19.6839 18.703L22.8883 18.6376C23.2153 18.6376 23.4768 18.5722 23.6076 18.5068C23.8038 18.376 23.8692 18.3106 23.9346 18.1798C24 18.049 24 17.9182 23.9346 17.722C23.9346 17.722 23.9346 17.5912 23.8692 17.5259Z" fill="#B3B3B3" fill-opacity="1.000000" fill-rule="nonzero"/>
	</g>
</svg>
